<svg width="103" height="24" viewBox="0 0 103 24" fill="none" xmlns="http://www.w3.org/2000/svg">
<g clip-path="url(#clip0_4_35)">
<path d="M0.909224 20.6004C2.01461 21.7841 8.09307 27.4555 17.6331 20.873C24.5331 15.4485 24.36 3.68854 23.6977 0.135139C23.4669 0.652421 15.4615 18.3705 0.909224 20.6004ZM23.6977 0.132809C23.6123 0.0978574 14.7369 -1.12311 5.96307 4.58329C0.514609 8.12504 -0.207699 13.3118 0.0415321 16.7767C12.7961 15.3274 23.4069 0.540576 23.6977 0.132809Z" fill="#97C554"/>
<path d="M23.6977 0.132809C23.6123 0.0978574 14.7369 -1.12311 5.96307 4.58329C0.514609 8.12504 -0.207699 13.3118 0.0415321 16.7767C12.7961 15.3274 23.4069 0.540576 23.6977 0.132809Z" fill="#709B30"/>
</g>
<path d="M27.7585 7.27273H30.0341L32.4375 13.1364H32.5398L34.9432 7.27273H37.2188V16H35.429V10.3196H35.3565L33.098 15.9574H31.8793L29.6207 10.2983H29.5483V16H27.7585V7.27273ZM38.7049 16V9.45455H40.5202V16H38.7049ZM39.6168 8.6108C39.3469 8.6108 39.1154 8.52131 38.9222 8.34233C38.7319 8.16051 38.6367 7.94318 38.6367 7.69034C38.6367 7.44034 38.7319 7.22585 38.9222 7.04688C39.1154 6.86506 39.3469 6.77415 39.6168 6.77415C39.8867 6.77415 40.1168 6.86506 40.3072 7.04688C40.5004 7.22585 40.5969 7.44034 40.5969 7.69034C40.5969 7.94318 40.5004 8.16051 40.3072 8.34233C40.1168 8.52131 39.8867 8.6108 39.6168 8.6108ZM44.9318 16.1278C44.2614 16.1278 43.6847 15.9858 43.2017 15.7017C42.7216 15.4148 42.3523 15.017 42.0938 14.5085C41.8381 14 41.7102 13.4148 41.7102 12.7528C41.7102 12.0824 41.8395 11.4943 42.098 10.9886C42.3594 10.4801 42.7301 10.0838 43.2102 9.79972C43.6903 9.51278 44.2614 9.36932 44.9233 9.36932C45.4943 9.36932 45.9943 9.47301 46.4233 9.6804C46.8523 9.88778 47.1918 10.179 47.4418 10.554C47.6918 10.929 47.8295 11.3693 47.8551 11.875H46.142C46.0938 11.5483 45.9659 11.2855 45.7585 11.0866C45.554 10.8849 45.2855 10.7841 44.9531 10.7841C44.6719 10.7841 44.4261 10.8608 44.2159 11.0142C44.0085 11.1648 43.8466 11.3849 43.7301 11.6747C43.6136 11.9645 43.5554 12.3153 43.5554 12.7273C43.5554 13.1449 43.6122 13.5 43.7259 13.7926C43.8423 14.0852 44.0057 14.3082 44.2159 14.4616C44.4261 14.6151 44.6719 14.6918 44.9531 14.6918C45.1605 14.6918 45.3466 14.6491 45.5114 14.5639C45.679 14.4787 45.8168 14.3551 45.9247 14.1932C46.0355 14.0284 46.108 13.831 46.142 13.6009H47.8551C47.8267 14.1009 47.6903 14.5412 47.446 14.9219C47.2045 15.2997 46.8707 15.5952 46.4446 15.8082C46.0185 16.0213 45.5142 16.1278 44.9318 16.1278ZM49.0174 16V9.45455H50.7773V10.5966H50.8455C50.9648 10.1903 51.1651 9.88352 51.4464 9.67614C51.7276 9.46591 52.0515 9.3608 52.418 9.3608C52.5089 9.3608 52.6069 9.36648 52.712 9.37784C52.8171 9.3892 52.9094 9.40483 52.989 9.42472V11.0355C52.9038 11.0099 52.7859 10.9872 52.6353 10.9673C52.4847 10.9474 52.3469 10.9375 52.2219 10.9375C51.9549 10.9375 51.7163 10.9957 51.506 11.1122C51.2987 11.2259 51.1339 11.3849 51.0117 11.5895C50.8924 11.794 50.8327 12.0298 50.8327 12.2969V16H49.0174ZM56.5803 16.1278C55.9183 16.1278 55.3459 15.9872 54.8629 15.706C54.3828 15.4219 54.0121 15.027 53.7507 14.5213C53.4893 14.0128 53.3587 13.4233 53.3587 12.7528C53.3587 12.0767 53.4893 11.4858 53.7507 10.9801C54.0121 10.4716 54.3828 10.0767 54.8629 9.79545C55.3459 9.51136 55.9183 9.36932 56.5803 9.36932C57.2422 9.36932 57.8132 9.51136 58.2933 9.79545C58.7763 10.0767 59.1484 10.4716 59.4098 10.9801C59.6712 11.4858 59.8018 12.0767 59.8018 12.7528C59.8018 13.4233 59.6712 14.0128 59.4098 14.5213C59.1484 15.027 58.7763 15.4219 58.2933 15.706C57.8132 15.9872 57.2422 16.1278 56.5803 16.1278ZM56.5888 14.7216C56.8899 14.7216 57.1413 14.6364 57.343 14.4659C57.5447 14.2926 57.6967 14.0568 57.799 13.7585C57.9041 13.4602 57.9567 13.1207 57.9567 12.7401C57.9567 12.3594 57.9041 12.0199 57.799 11.7216C57.6967 11.4233 57.5447 11.1875 57.343 11.0142C57.1413 10.8409 56.8899 10.7543 56.5888 10.7543C56.2848 10.7543 56.0291 10.8409 55.8217 11.0142C55.6172 11.1875 55.4624 11.4233 55.3572 11.7216C55.255 12.0199 55.2038 12.3594 55.2038 12.7401C55.2038 13.1207 55.255 13.4602 55.3572 13.7585C55.4624 14.0568 55.6172 14.2926 55.8217 14.4659C56.0291 14.6364 56.2848 14.7216 56.5888 14.7216ZM66.8033 10.0938C66.7436 9.88636 66.6598 9.70312 66.5518 9.54403C66.4439 9.3821 66.3118 9.24574 66.1555 9.13494C66.0021 9.02131 65.826 8.93466 65.6271 8.875C65.4311 8.81534 65.2138 8.78551 64.9751 8.78551C64.5291 8.78551 64.1371 8.89631 63.799 9.1179C63.4638 9.33949 63.2024 9.66193 63.0149 10.0852C62.8274 10.5057 62.7337 11.0199 62.7337 11.6278C62.7337 12.2358 62.826 12.7528 63.0107 13.179C63.1953 13.6051 63.4567 13.9304 63.7947 14.1548C64.1328 14.3764 64.532 14.4872 64.9922 14.4872C65.4098 14.4872 65.7663 14.4134 66.0618 14.2656C66.3601 14.1151 66.5874 13.9034 66.7436 13.6307C66.9027 13.358 66.9822 13.0355 66.9822 12.6634L67.3572 12.7188H65.1072V11.3295H68.7592V12.429C68.7592 13.196 68.5973 13.8551 68.2734 14.4062C67.9496 14.9545 67.5036 15.3778 66.9354 15.6761C66.3672 15.9716 65.7166 16.1193 64.9837 16.1193C64.1655 16.1193 63.4467 15.9389 62.8274 15.5781C62.2081 15.2145 61.7251 14.6989 61.3786 14.0312C61.0348 13.3608 60.8629 12.5653 60.8629 11.6449C60.8629 10.9375 60.9652 10.3068 61.1697 9.75284C61.3771 9.19602 61.6669 8.72443 62.0391 8.33807C62.4112 7.9517 62.8445 7.65767 63.3388 7.45597C63.8331 7.25426 64.3686 7.15341 64.9453 7.15341C65.4396 7.15341 65.8999 7.22585 66.326 7.37074C66.7521 7.51278 67.13 7.71449 67.4595 7.97585C67.7919 8.23722 68.0632 8.5483 68.2734 8.90909C68.4837 9.26705 68.6186 9.66193 68.6783 10.0938H66.8033ZM70.1112 16V9.45455H71.8711V10.5966H71.9393C72.0586 10.1903 72.2589 9.88352 72.5401 9.67614C72.8214 9.46591 73.1452 9.3608 73.5117 9.3608C73.6026 9.3608 73.7006 9.36648 73.8058 9.37784C73.9109 9.3892 74.0032 9.40483 74.0827 9.42472V11.0355C73.9975 11.0099 73.8796 10.9872 73.729 10.9673C73.5785 10.9474 73.4407 10.9375 73.3157 10.9375C73.0487 10.9375 72.81 10.9957 72.5998 11.1122C72.3924 11.2259 72.2276 11.3849 72.1055 11.5895C71.9862 11.794 71.9265 12.0298 71.9265 12.2969V16H70.1112ZM77.6996 16.1278C77.0263 16.1278 76.4467 15.9915 75.9609 15.7188C75.478 15.4432 75.1058 15.054 74.8445 14.5511C74.5831 14.0455 74.4524 13.4474 74.4524 12.7571C74.4524 12.0838 74.5831 11.4929 74.8445 10.9844C75.1058 10.4759 75.4737 10.0795 75.9482 9.79545C76.4254 9.51136 76.9851 9.36932 77.6271 9.36932C78.0589 9.36932 78.4609 9.43892 78.8331 9.57812C79.2081 9.71449 79.5348 9.92045 79.8132 10.196C80.0945 10.4716 80.3132 10.8182 80.4695 11.2358C80.6257 11.6506 80.7038 12.1364 80.7038 12.6932V13.1918H75.1768V12.0668H78.995C78.995 11.8054 78.9382 11.5739 78.8246 11.3722C78.7109 11.1705 78.5533 11.0128 78.3516 10.8991C78.1527 10.7827 77.9212 10.7244 77.657 10.7244C77.3814 10.7244 77.1371 10.7884 76.924 10.9162C76.7138 11.0412 76.549 11.2102 76.4297 11.4233C76.3104 11.6335 76.2493 11.8679 76.2464 12.1264V13.196C76.2464 13.5199 76.3061 13.7997 76.4254 14.0355C76.5476 14.2713 76.7195 14.4531 76.9411 14.581C77.1626 14.7088 77.4254 14.7727 77.7294 14.7727C77.9311 14.7727 78.1158 14.7443 78.2834 14.6875C78.451 14.6307 78.5945 14.5455 78.7138 14.4318C78.8331 14.3182 78.924 14.179 78.9865 14.0142L80.6655 14.125C80.5803 14.5284 80.4055 14.8807 80.1413 15.1818C79.88 15.4801 79.5419 15.7131 79.1271 15.8807C78.7152 16.0455 78.2393 16.1278 77.6996 16.1278ZM84.8714 16.1278C84.1982 16.1278 83.6186 15.9915 83.1328 15.7188C82.6499 15.4432 82.2777 15.054 82.0163 14.5511C81.755 14.0455 81.6243 13.4474 81.6243 12.7571C81.6243 12.0838 81.755 11.4929 82.0163 10.9844C82.2777 10.4759 82.6456 10.0795 83.12 9.79545C83.5973 9.51136 84.157 9.36932 84.799 9.36932C85.2308 9.36932 85.6328 9.43892 86.005 9.57812C86.38 9.71449 86.7067 9.92045 86.9851 10.196C87.2663 10.4716 87.4851 10.8182 87.6413 11.2358C87.7976 11.6506 87.8757 12.1364 87.8757 12.6932V13.1918H82.3487V12.0668H86.1669C86.1669 11.8054 86.1101 11.5739 85.9964 11.3722C85.8828 11.1705 85.7251 11.0128 85.5234 10.8991C85.3246 10.7827 85.093 10.7244 84.8288 10.7244C84.5533 10.7244 84.3089 10.7884 84.0959 10.9162C83.8857 11.0412 83.7209 11.2102 83.6016 11.4233C83.4822 11.6335 83.4212 11.8679 83.4183 12.1264V13.196C83.4183 13.5199 83.478 13.7997 83.5973 14.0355C83.7195 14.2713 83.8913 14.4531 84.1129 14.581C84.3345 14.7088 84.5973 14.7727 84.9013 14.7727C85.103 14.7727 85.2876 14.7443 85.4553 14.6875C85.6229 14.6307 85.7663 14.5455 85.8857 14.4318C86.005 14.3182 86.0959 14.179 86.1584 14.0142L87.8374 14.125C87.7521 14.5284 87.5774 14.8807 87.3132 15.1818C87.0518 15.4801 86.7138 15.7131 86.299 15.8807C85.8871 16.0455 85.4112 16.1278 84.8714 16.1278ZM90.8757 12.2159V16H89.0604V9.45455H90.7905V10.6094H90.8672C91.0121 10.2287 91.255 9.92756 91.5959 9.70597C91.9368 9.48153 92.3501 9.36932 92.8359 9.36932C93.2905 9.36932 93.6868 9.46875 94.0249 9.66761C94.3629 9.86648 94.6257 10.1506 94.8132 10.5199C95.0007 10.8864 95.0945 11.3239 95.0945 11.8324V16H93.2791V12.1562C93.282 11.7557 93.1797 11.4432 92.9723 11.2188C92.7649 10.9915 92.4794 10.8778 92.1158 10.8778C91.8714 10.8778 91.6555 10.9304 91.468 11.0355C91.2834 11.1406 91.1385 11.294 91.0334 11.4957C90.9311 11.6946 90.8786 11.9347 90.8757 12.2159ZM101.971 11.321L100.309 11.4233C100.281 11.2812 100.22 11.1534 100.126 11.0398C100.032 10.9233 99.9087 10.831 99.7553 10.7628C99.6048 10.6918 99.4244 10.6562 99.2141 10.6562C98.9329 10.6562 98.6957 10.7159 98.5025 10.8352C98.3093 10.9517 98.2127 11.108 98.2127 11.304C98.2127 11.4602 98.2752 11.5923 98.4002 11.7003C98.5252 11.8082 98.7397 11.8949 99.0437 11.9602L100.228 12.1989C100.865 12.3295 101.339 12.5398 101.652 12.8295C101.964 13.1193 102.12 13.5 102.12 13.9716C102.12 14.4006 101.994 14.777 101.741 15.1009C101.491 15.4247 101.147 15.6776 100.71 15.8594C100.275 16.0384 99.7738 16.1278 99.2056 16.1278C98.3391 16.1278 97.6488 15.9474 97.1346 15.5866C96.6232 15.223 96.3235 14.7287 96.2354 14.1037L98.021 14.0099C98.0749 14.2741 98.2056 14.4759 98.413 14.6151C98.6204 14.7514 98.886 14.8196 99.2099 14.8196C99.5281 14.8196 99.7837 14.7585 99.9769 14.6364C100.173 14.5114 100.272 14.3509 100.275 14.1548C100.272 13.9901 100.203 13.8551 100.066 13.75C99.93 13.642 99.7198 13.5597 99.4357 13.5028L98.3022 13.277C97.663 13.1491 97.1871 12.9276 96.8746 12.6122C96.565 12.2969 96.4102 11.8949 96.4102 11.4062C96.4102 10.9858 96.5238 10.6236 96.7511 10.3196C96.9812 10.0156 97.3036 9.78125 97.7184 9.61648C98.136 9.4517 98.6246 9.36932 99.1843 9.36932C100.011 9.36932 100.662 9.54403 101.136 9.89347C101.613 10.2429 101.892 10.7187 101.971 11.321Z" fill="white"/>
<defs>
<clipPath id="clip0_4_35">
<rect width="24" height="24" fill="white"/>
</clipPath>
</defs>
</svg>
